<svg xmlns="http://www.w3.org/2000/svg" viewBox="0 0 235.41 194.69"><defs><style>.cls-1{fill:#e38b3a;}.cls-2{fill:#fff;stroke:#000;stroke-miterlimit:10;stroke-width:0.1px;opacity:0.18;}</style></defs><g id="Layer_2" data-name="Layer 2"><g id="Layer_1-2" data-name="Layer 1"><path class="cls-1" d="M113.07,178.76V187a7.23,7.23,0,0,1-7.87,7.21,313.37,313.37,0,0,1-31.68-4.65c-9.63-1.91-16.87-7.55-22.6-15.31C45.59,167,40.1,159.86,35,152.46c-6.68-9.72-8.47-20.18-5-30.75l28.44-7.84-5.85,12c-2.5,5.12-1.94,9.95,1.4,14.56,4.39,6,8.62,12.21,13.07,18.23,3.73,5.05,8.17,8.71,14.91,9.71,8.18,1.22,16.36,2.34,24.56,3.17A7.22,7.22,0,0,1,113.07,178.76Z"/><path class="cls-1" d="M103.07,7.62v8.45a7.09,7.09,0,0,1-4.16,6.55,18,18,0,0,0-9,9.12Q69.66,73.32,49.45,114.89l-28.72,7.93c.36-.94.77-1.88,1.22-2.82,16-33.3,32.28-66.43,48.54-99.58A36.93,36.93,0,0,1,93.73.7l.16,0A7.21,7.21,0,0,1,103.07,7.62Z"/><path class="cls-1" d="M193.28,75.21l-22.13,6.1Q158.91,56.16,146.64,31a16.48,16.48,0,0,0-9-8.57,5.77,5.77,0,0,1-3.75-5.36V5.73A5.74,5.74,0,0,1,141,.18a44.64,44.64,0,0,1,7.27,2.5,35.75,35.75,0,0,1,18,17.32Q179.81,47.6,193.28,75.21Z"/><path class="cls-1" d="M222.06,151.93c-5.79,8.72-12.35,16.95-18.84,25.18-7.08,9-16.95,12.42-27.95,14.38A248.53,248.53,0,0,1,150,194.68a5.73,5.73,0,0,1-6.14-5.71V177.71A5.7,5.7,0,0,1,149,172c8.13-.77,16.23-1.92,24.34-3.18a21.62,21.62,0,0,0,15.4-9.77c4.43-6.44,9.28-12.6,14-18.8,3.38-4.39,4.05-9.09,1.65-14Q193.19,103,181.88,79.82L204,73.72q10.66,21.86,21.23,43.75C231,129.42,229.16,141.21,222.06,151.93Z"/><polygon class="cls-2" points="235.39 65.06 204.02 73.72 181.88 79.82 58.49 113.87 30.05 121.71 21.04 123.55 0.01 128.29 30.73 119.82 59.45 111.89 181.15 78.31 195.29 74.41 195.29 74.41 235.39 65.06"/></g></g></svg>